<svg width="338" height="58" viewBox="0 0 338 58" fill="none" xmlns="http://www.w3.org/2000/svg">
<path d="M128.357 21.2756C128.243 20.1297 127.755 19.2396 126.893 18.6051C126.032 17.9706 124.862 17.6534 123.385 17.6534C122.381 17.6534 121.534 17.7955 120.842 18.0795C120.151 18.3542 119.621 18.7377 119.251 19.2301C118.892 19.7225 118.712 20.2812 118.712 20.9062C118.693 21.4271 118.802 21.8816 119.038 22.2699C119.285 22.6581 119.621 22.9943 120.047 23.2784C120.473 23.553 120.965 23.7945 121.524 24.0028C122.083 24.2017 122.679 24.3722 123.314 24.5142L125.928 25.1392C127.196 25.4233 128.361 25.8021 129.422 26.2756C130.482 26.7491 131.401 27.3314 132.178 28.0227C132.954 28.714 133.555 29.5284 133.982 30.4659C134.417 31.4034 134.64 32.4782 134.649 33.6903C134.64 35.4706 134.185 37.0142 133.286 38.321C132.395 39.6184 131.107 40.6269 129.422 41.3466C127.746 42.0568 125.724 42.4119 123.357 42.4119C121.008 42.4119 118.963 42.0521 117.22 41.3324C115.487 40.6127 114.133 39.5473 113.158 38.1364C112.192 36.7159 111.685 34.9593 111.638 32.8665H117.589C117.656 33.8419 117.935 34.6562 118.428 35.3097C118.929 35.9536 119.597 36.4413 120.43 36.7727C121.273 37.0947 122.225 37.2557 123.286 37.2557C124.327 37.2557 125.232 37.1042 125.999 36.8011C126.775 36.4981 127.376 36.0767 127.803 35.5369C128.229 34.9972 128.442 34.3769 128.442 33.6761C128.442 33.0227 128.248 32.4735 127.859 32.0284C127.481 31.5833 126.922 31.2045 126.183 30.892C125.454 30.5795 124.559 30.2955 123.499 30.0398L120.331 29.2443C117.878 28.6477 115.942 27.715 114.521 26.446C113.101 25.1771 112.395 23.4678 112.405 21.3182C112.395 19.5568 112.864 18.018 113.811 16.7017C114.768 15.3854 116.079 14.358 117.746 13.6193C119.412 12.8807 121.306 12.5114 123.428 12.5114C125.587 12.5114 127.471 12.8807 129.081 13.6193C130.7 14.358 131.96 15.3854 132.859 16.7017C133.759 18.018 134.223 19.5426 134.251 21.2756H128.357ZM138.673 42V20.1818H144.724V42H138.673ZM141.712 17.3693C140.813 17.3693 140.041 17.071 139.397 16.4744C138.763 15.8684 138.445 15.1439 138.445 14.3011C138.445 13.4678 138.763 12.7528 139.397 12.1562C140.041 11.5502 140.813 11.2472 141.712 11.2472C142.612 11.2472 143.379 11.5502 144.013 12.1562C144.657 12.7528 144.979 13.4678 144.979 14.3011C144.979 15.1439 144.657 15.8684 144.013 16.4744C143.379 17.071 142.612 17.3693 141.712 17.3693ZM149.571 42V20.1818H155.438V23.9886H155.665C156.063 22.6345 156.73 21.6117 157.668 20.9205C158.605 20.2197 159.685 19.8693 160.906 19.8693C161.209 19.8693 161.536 19.8883 161.886 19.9261C162.237 19.964 162.545 20.0161 162.81 20.0824V25.4517C162.526 25.3665 162.133 25.2907 161.631 25.2244C161.129 25.1581 160.67 25.125 160.253 25.125C159.363 25.125 158.567 25.3191 157.866 25.7074C157.175 26.0862 156.626 26.6165 156.219 27.2983C155.821 27.9801 155.622 28.7661 155.622 29.6562V42H149.571ZM165.938 42V20.1818H171.989V42H165.938ZM168.978 17.3693C168.078 17.3693 167.307 17.071 166.663 16.4744C166.028 15.8684 165.711 15.1439 165.711 14.3011C165.711 13.4678 166.028 12.7528 166.663 12.1562C167.307 11.5502 168.078 11.2472 168.978 11.2472C169.878 11.2472 170.645 11.5502 171.279 12.1562C171.923 12.7528 172.245 13.4678 172.245 14.3011C172.245 15.1439 171.923 15.8684 171.279 16.4744C170.645 17.071 169.878 17.3693 168.978 17.3693ZM190.828 32.7102V20.1818H196.879V42H191.07V38.0369H190.842C190.35 39.3153 189.531 40.3428 188.385 41.1193C187.249 41.8958 185.861 42.2841 184.223 42.2841C182.765 42.2841 181.482 41.9527 180.374 41.2898C179.266 40.6269 178.399 39.6847 177.774 38.4631C177.159 37.2415 176.846 35.7784 176.837 34.0739V20.1818H182.888V32.9943C182.897 34.2822 183.243 35.3002 183.925 36.0483C184.607 36.7964 185.52 37.1705 186.666 37.1705C187.395 37.1705 188.077 37.0047 188.712 36.6733C189.346 36.3324 189.857 35.8305 190.246 35.1676C190.643 34.5047 190.838 33.6856 190.828 32.7102ZM219.873 26.4034L214.333 26.7443C214.238 26.2708 214.035 25.8447 213.722 25.4659C213.41 25.0777 212.998 24.7699 212.487 24.5426C211.985 24.3059 211.383 24.1875 210.683 24.1875C209.745 24.1875 208.954 24.3864 208.31 24.7841C207.666 25.1723 207.344 25.6932 207.344 26.3466C207.344 26.8674 207.553 27.3078 207.969 27.6676C208.386 28.0275 209.101 28.3163 210.114 28.5341L214.063 29.3295C216.184 29.7652 217.766 30.4659 218.808 31.4318C219.849 32.3977 220.37 33.6667 220.37 35.2386C220.37 36.6686 219.949 37.9233 219.106 39.0028C218.272 40.0824 217.127 40.9252 215.668 41.5312C214.219 42.1278 212.548 42.4261 210.654 42.4261C207.766 42.4261 205.465 41.8248 203.751 40.6222C202.046 39.41 201.047 37.7623 200.754 35.679L206.705 35.3665C206.885 36.2472 207.321 36.9195 208.012 37.3835C208.703 37.8381 209.589 38.0653 210.668 38.0653C211.729 38.0653 212.581 37.8617 213.225 37.4545C213.879 37.0379 214.21 36.5028 214.219 35.8494C214.21 35.3002 213.978 34.8504 213.523 34.5C213.069 34.1402 212.368 33.8655 211.421 33.6761L207.643 32.9233C205.512 32.4972 203.926 31.7585 202.884 30.7074C201.852 29.6562 201.336 28.3163 201.336 26.6875C201.336 25.286 201.715 24.0786 202.472 23.0653C203.239 22.0521 204.314 21.2708 205.697 20.7216C207.089 20.1723 208.718 19.8977 210.583 19.8977C213.339 19.8977 215.507 20.4801 217.089 21.6449C218.68 22.8097 219.608 24.3958 219.873 26.4034Z" fill="#147FFF"/>
<path d="M232.288 42V27.4545H238.112C239.182 27.4545 240.074 27.6132 240.789 27.9304C241.504 28.2476 242.041 28.688 242.401 29.2514C242.761 29.8101 242.941 30.4541 242.941 31.1832C242.941 31.7514 242.827 32.2509 242.6 32.6818C242.373 33.108 242.06 33.4583 241.663 33.733C241.27 34.0028 240.82 34.1946 240.313 34.3082V34.4503C240.867 34.474 241.386 34.6302 241.869 34.919C242.356 35.2079 242.752 35.6127 243.055 36.1335C243.358 36.6496 243.509 37.2652 243.509 37.9801C243.509 38.7519 243.317 39.4408 242.934 40.0469C242.555 40.6482 241.994 41.1241 241.251 41.4744C240.507 41.8248 239.591 42 238.502 42H232.288ZM235.363 39.4858H237.87C238.727 39.4858 239.352 39.3224 239.745 38.9957C240.138 38.6643 240.335 38.224 240.335 37.6747C240.335 37.2723 240.237 36.9171 240.043 36.6094C239.849 36.3016 239.572 36.0601 239.212 35.8849C238.857 35.7098 238.433 35.6222 237.941 35.6222H235.363V39.4858ZM235.363 33.5412H237.643C238.064 33.5412 238.438 33.4678 238.765 33.321C239.096 33.1695 239.357 32.9564 239.546 32.6818C239.74 32.4072 239.837 32.0781 239.837 31.6946C239.837 31.169 239.65 30.7453 239.276 30.4233C238.907 30.1013 238.381 29.9403 237.7 29.9403H235.363V33.5412ZM247.321 46.0909C246.938 46.0909 246.578 46.0601 246.242 45.9986C245.91 45.9418 245.636 45.8684 245.418 45.7784L246.1 43.5199C246.455 43.6288 246.775 43.688 247.059 43.6974C247.347 43.7069 247.596 43.6406 247.804 43.4986C248.017 43.3565 248.19 43.1151 248.323 42.7741L248.5 42.3125L244.587 31.0909H247.769L250.027 39.1023H250.141L252.421 31.0909H255.624L251.384 43.179C251.18 43.7661 250.903 44.2775 250.553 44.7131C250.207 45.1534 249.769 45.492 249.239 45.7287C248.709 45.9702 248.069 46.0909 247.321 46.0909ZM261.858 42V27.4545H264.933V39.4645H271.169V42H261.858ZM273.149 42V31.0909H276.174V42H273.149ZM274.669 29.6847C274.219 29.6847 273.833 29.5355 273.511 29.2372C273.194 28.9342 273.035 28.572 273.035 28.1506C273.035 27.7339 273.194 27.3764 273.511 27.0781C273.833 26.7751 274.219 26.6236 274.669 26.6236C275.118 26.6236 275.502 26.7751 275.819 27.0781C276.141 27.3764 276.302 27.7339 276.302 28.1506C276.302 28.572 276.141 28.9342 275.819 29.2372C275.502 29.5355 275.118 29.6847 274.669 29.6847ZM284.464 31.0909V33.3636H277.732V31.0909H284.464ZM279.273 42V30.3026C279.273 29.5118 279.427 28.8561 279.734 28.3352C280.047 27.8144 280.473 27.4238 281.013 27.1634C281.553 26.9029 282.166 26.7727 282.852 26.7727C283.316 26.7727 283.74 26.8082 284.124 26.8793C284.512 26.9503 284.801 27.0142 284.99 27.071L284.45 29.3438C284.332 29.3059 284.185 29.2704 284.01 29.2372C283.839 29.2041 283.664 29.1875 283.484 29.1875C283.039 29.1875 282.729 29.2917 282.554 29.5C282.379 29.7036 282.291 29.9901 282.291 30.3594V42H279.273ZM292.115 31.0909V33.3636H285.546V31.0909H292.115ZM287.037 28.4773H290.063V38.6477C290.063 38.9271 290.105 39.1449 290.191 39.3011C290.276 39.4527 290.394 39.5592 290.546 39.6207C290.702 39.6823 290.882 39.7131 291.086 39.7131C291.228 39.7131 291.37 39.7012 291.512 39.6776C291.654 39.6491 291.763 39.6278 291.838 39.6136L292.314 41.8651C292.163 41.9124 291.95 41.9669 291.675 42.0284C291.4 42.0947 291.067 42.1349 290.674 42.1491C289.944 42.1776 289.305 42.0805 288.756 41.858C288.212 41.6354 287.788 41.2898 287.485 40.821C287.182 40.3523 287.033 39.7604 287.037 39.0455V28.4773ZM307.51 34.7273C307.51 36.3134 307.209 37.6629 306.608 38.7756C306.011 39.8883 305.197 40.7382 304.164 41.3253C303.137 41.9077 301.982 42.1989 300.699 42.1989C299.406 42.1989 298.246 41.9053 297.218 41.3182C296.191 40.7311 295.379 39.8812 294.782 38.7685C294.186 37.6558 293.887 36.3087 293.887 34.7273C293.887 33.1411 294.186 31.7917 294.782 30.679C295.379 29.5663 296.191 28.7187 297.218 28.1364C298.246 27.5492 299.406 27.2557 300.699 27.2557C301.982 27.2557 303.137 27.5492 304.164 28.1364C305.197 28.7187 306.011 29.5663 306.608 30.679C307.209 31.7917 307.51 33.1411 307.51 34.7273ZM304.392 34.7273C304.392 33.6998 304.238 32.8333 303.93 32.1278C303.627 31.4223 303.199 30.8873 302.645 30.5227C302.091 30.1581 301.442 29.9759 300.699 29.9759C299.955 29.9759 299.306 30.1581 298.752 30.5227C298.199 30.8873 297.768 31.4223 297.46 32.1278C297.157 32.8333 297.005 33.6998 297.005 34.7273C297.005 35.7547 297.157 36.6212 297.46 37.3267C297.768 38.0322 298.199 38.5672 298.752 38.9318C299.306 39.2964 299.955 39.4787 300.699 39.4787C301.442 39.4787 302.091 39.2964 302.645 38.9318C303.199 38.5672 303.627 38.0322 303.93 37.3267C304.238 36.6212 304.392 35.7547 304.392 34.7273ZM315.597 31.0909V33.3636H308.864V31.0909H315.597ZM310.406 42V30.3026C310.406 29.5118 310.559 28.8561 310.867 28.3352C311.18 27.8144 311.606 27.4238 312.146 27.1634C312.685 26.9029 313.299 26.7727 313.985 26.7727C314.449 26.7727 314.873 26.8082 315.256 26.8793C315.645 26.9503 315.933 27.0142 316.123 27.071L315.583 29.3438C315.465 29.3059 315.318 29.2704 315.143 29.2372C314.972 29.2041 314.797 29.1875 314.617 29.1875C314.172 29.1875 313.862 29.2917 313.687 29.5C313.512 29.7036 313.424 29.9901 313.424 30.3594V42H310.406ZM323.312 31.0909V33.3636H316.579V31.0909H323.312ZM318.12 42V30.3026C318.12 29.5118 318.274 28.8561 318.582 28.3352C318.895 27.8144 319.321 27.4238 319.86 27.1634C320.4 26.9029 321.013 26.7727 321.7 26.7727C322.164 26.7727 322.588 26.8082 322.971 26.8793C323.359 26.9503 323.648 27.0142 323.838 27.071L323.298 29.3438C323.18 29.3059 323.033 29.2704 322.858 29.2372C322.687 29.2041 322.512 29.1875 322.332 29.1875C321.887 29.1875 321.577 29.2917 321.402 29.5C321.226 29.7036 321.139 29.9901 321.139 30.3594V42H318.12Z" fill="white"/>
<path d="M16.6462 33.495C16.4199 33.3383 16.1482 33.2506 15.8675 33.2438C15.5868 33.2371 15.3107 33.3115 15.0762 33.4571C14.8417 33.6027 14.66 33.8126 14.5557 34.0585C14.4514 34.3043 14.4294 34.5744 14.4927 34.8324C17.5434 47.5434 29.6142 57.0625 44.0002 57.0625C47.0552 57.0634 50.0925 56.6262 53.0081 55.7656C53.2772 55.6874 53.5143 55.5331 53.6874 55.3237C53.8605 55.1142 53.9613 54.8597 53.9761 54.5945C53.9909 54.3293 53.9191 54.0662 53.7702 53.8408C53.6214 53.6154 53.4028 53.4385 53.1439 53.334C46.7016 50.6558 40.4198 47.6463 34.327 44.3191C28.2293 41.0167 22.327 37.4033 16.6462 33.495ZM84.6864 42.069C83.9663 41.1644 83.1206 40.2145 82.1598 39.2272C81.8459 38.9011 81.4481 38.6566 81.005 38.5174C80.5618 38.3783 80.0881 38.349 79.6295 38.4326C79.1708 38.5161 78.7427 38.7096 78.3864 38.9945C78.0301 39.2793 77.7575 39.6459 77.5948 40.0588C77.5948 40.0848 77.5759 40.1091 77.5656 40.135C77.3943 40.5741 77.3542 41.0492 77.4497 41.5083C77.5451 41.9674 77.7725 42.393 78.107 42.7385C82.0155 46.7913 82.648 48.9814 82.4864 49.4434C82.1427 49.8049 79.5559 50.5603 72.4919 48.8711C71.4801 48.629 70.3732 48.334 69.1713 47.986C68.3967 47.7612 67.6066 47.5186 66.8011 47.2581C68.0663 45.8892 69.1908 44.4101 70.1595 42.8406C70.1888 42.7936 70.2197 42.7466 70.2489 42.698C72.8727 38.3868 74.2523 33.5022 74.2502 28.5313C74.2508 27.5024 74.1934 26.4743 74.0783 25.4512C72.4334 11.158 59.572 4.50227e-06 44.0002 4.50227e-06C37.393 -0.00350148 30.9676 2.0407 25.7127 5.81811C22.5276 8.10455 19.851 10.9601 17.8356 14.2219C17.8081 14.2689 17.7772 14.3159 17.748 14.3629C16.7901 15.9368 15.9942 17.5935 15.3709 19.3105C14.7304 18.7842 14.1122 18.2616 13.5164 17.7429C12.59 16.9323 11.7684 16.1818 11.038 15.4733C5.95562 10.5679 5.35062 8.07954 5.51046 7.61914C5.85421 7.25764 8.1814 6.66756 13.867 7.83151C14.3531 7.93233 14.8592 7.90538 15.3302 7.75359C15.8012 7.6018 16.2189 7.33101 16.538 6.97071L16.5998 6.89938C16.8964 6.56326 17.0964 6.16091 17.1806 5.73092C17.2649 5.30093 17.2305 4.85774 17.0809 4.44387C16.9313 4.02999 16.6715 3.65932 16.3263 3.36742C15.9811 3.07553 15.5622 2.87219 15.1097 2.77694C13.7602 2.48844 12.3961 2.26498 11.0225 2.10743C5.74249 1.53518 2.28609 2.51594 0.747807 5.0254C0.190932 5.92997 -0.343599 7.47163 0.280307 9.66172C1.20328 12.9136 4.49296 16.8594 9.14906 20.9932C10.6323 22.3111 12.2531 23.6469 13.9822 24.9875C15.2403 25.9602 16.5603 26.9426 17.9181 27.9185C18.8245 28.5669 19.7497 29.2154 20.6939 29.8638C21.6381 30.5122 22.5948 31.1488 23.5642 31.7734C27.9316 34.6282 32.5464 37.3695 37.0719 39.8287C38.715 40.7213 40.3558 41.5859 41.9944 42.4224C43.6329 43.2589 45.2583 44.0592 46.8705 44.8232C50.6345 46.6064 54.3213 48.2146 57.8464 49.5941C59.3578 50.1864 60.8365 50.7354 62.2825 51.2412C64.3261 51.9577 66.2992 52.5883 68.1795 53.12L68.3686 53.1735C72.7909 54.4153 76.5189 55.0686 79.4511 55.1188H79.7502C83.4695 55.1188 85.9892 54.0846 87.2405 52.0387C88.8028 49.5066 87.9417 46.1509 84.6864 42.069Z" fill="#147FFF"/>
</svg>
